# xmcd
#
# Track frame offsets: 
#        182
#        13057
#        30532
#        57807
#        85127
#        104787
#        137270
#        161345
#        186472
#        205615
#        231377
#        261072
#        280705
#        298587
#        312197
#
# Disc length: 4529 seconds
#
# Revision: 1
# Processed by: cddbd v1.5.2PL0 Copyright (c) Steve Scherf et al.
# Submitted via: ExactAudioCopy v0.95b3
#
DISCID=cd11af0f
DTITLE=Marc Cohn - The American Landscape
DYEAR=1992
DGENRE=Singer/Songwriter
TTITLE0=Strangers In A Car [Live]
TTITLE1=Nowhere Fast [Live]
TTITLE2=Walking In Memphis [Live]
TTITLE3=Ghost Train [Live]
TTITLE4=Blow On Chilly Wind [Live]
TTITLE5=29 Ways [Live]
TTITLE6=Perfect Love [Live]
TTITLE7=Rest For The Weary [Live]
TTITLE8=Isn't That So [Live]
TTITLE9=Dig Down Deep [Live]
TTITLE10=Silver Thunderbird [Live]
TTITLE11=The Things We've Handed Down [Live]
TTITLE12=Fever [Live]
TTITLE13=Take Me To Hamburg [Live]
TTITLE14=Saving The Best For Last [Live]
EXTD=
EXTT0=
EXTT1=
EXTT2=
EXTT3=
EXTT4=
EXTT5=
EXTT6=
EXTT7=
EXTT8=
EXTT9=
EXTT10=
EXTT11=
EXTT12=
EXTT13=
EXTT14=
PLAYORDER=
